<svg width="343" height="336" viewBox="0 0 343 336" fill="none" xmlns="http://www.w3.org/2000/svg">
<path d="M124.717 192.245C129.403 203.07 137.457 211.624 148.688 217.294C153.77 219.859 158.973 221.506 164.249 222.278L158.912 234.028C157.791 236.497 156.424 239.397 155.218 242.184C148.048 258.753 142.3 275.716 137.221 292.718C134.458 301.967 131.064 309.845 125.64 316.286C121.161 321.605 116.168 324.711 110.127 325.663C104.714 326.516 99.3409 325.445 93.6729 322.64C84.9046 318.299 77.8615 311.526 71.6865 302.883C63.9938 292.115 59.0016 280.402 57.0879 267.57C54.8286 252.422 57.2504 239.072 65.9004 227.301C71.9113 219.121 79.9719 213.245 89.7588 209.224C97.9786 205.846 106.122 203.119 115.056 199.813C116.259 199.368 118.448 198.468 120.55 196.382L124.717 192.245ZM224.636 209.297C227.119 211.526 229.821 214.001 232.492 216.342C246.332 228.473 261.11 239.169 275.778 249.402C283.007 254.446 288.877 260.016 292.99 266.853C299.294 277.329 298.005 288.813 289.501 297.731C281.378 306.25 271 311.314 258.654 314.586C250.839 316.657 242.888 317.551 234.832 317.249C223.068 316.808 212.471 314.149 203.096 308.272C191.396 300.938 184.307 290.49 181.207 276.951L180.92 275.632C179.838 270.404 179.496 264.897 179.076 258.53C178.857 255.21 178.736 251.882 178.593 248.317C178.452 244.81 178.29 241.114 177.984 237.354L176.776 222.5C180.587 222.091 184.418 221.258 188.251 220.012L188.364 219.975L188.477 219.935C199.387 216.098 208.124 209.406 214.377 200.087L224.636 209.297ZM297.089 91.9922C303.701 90.5408 309.252 91.1968 313.759 93.2568C318.27 95.319 322.433 99.1073 325.719 105.094C329.285 111.592 331.166 118.801 331.878 126.777C333.066 140.09 331.227 152.87 326.284 165.167L325.796 166.355C320.601 178.743 313.077 188.419 302.103 194.896C294.203 199.557 285.502 201.579 275.821 201.462C267.638 201.363 259.58 199.318 250.535 196.565C244.993 194.879 239.327 193.349 233.418 192.079L220.013 189.198C222.996 181.25 223.789 172.922 222.653 164.487C221.616 156.78 219.103 149.756 215.133 143.565L221.973 138.495C226.027 136.186 230.751 133.615 235.117 130.94C249.527 122.115 262.996 112.078 276.048 102.339C282.841 97.2697 289.673 93.6201 297.089 91.9922ZM61.2217 89.0781C79.3387 83.5349 95.1801 86.6989 109.847 98.75C115.43 103.337 120.061 109.103 125.136 115.839C128.187 119.889 131.46 123.926 134.392 127.643C135.395 128.915 136.896 130.366 139.146 131.383C133.538 135.968 128.935 141.843 125.443 148.902C120.568 158.759 119.083 169.393 121.06 180.139L114.729 179.358C112.887 179.131 110.528 178.806 108.341 178.578C89.073 176.57 69.8775 176.549 51.0947 176.871C42.4677 177.019 34.7598 176.284 27.6934 173.676L27.0117 173.418L26.1602 173.077C17.4821 169.488 12.4489 163.938 10.6201 155.391C9.25737 149.021 10.2032 142.468 12.8662 135.25C17.088 123.808 24.161 114.075 33.5039 105.508C41.8127 97.8889 50.9141 92.2319 61.2217 89.0781ZM151.335 11.2998C160.003 9.15385 168.908 9.79129 178.402 12.292C193.006 16.1384 205.619 23.2611 216.172 33.8877C224.467 42.2415 229.896 51.7062 231.911 62.7988C233.691 72.5964 232.235 82.1816 228.182 91.9854C225.239 99.1029 220.761 105.246 215.468 113.063C212.952 116.779 210.473 120.565 207.975 124.339L207.184 125.533L206.76 126.902C206.567 127.523 206.318 128.5 206.268 129.709C206.211 131.071 206.446 132.129 206.479 132.285L206.763 133.67C205.757 132.75 204.705 131.858 203.607 130.997C191.452 121.464 177.173 117.911 161.934 120.914C159.151 121.462 156.483 122.192 153.934 123.099L153.355 120.341C152.744 117.422 152.091 114.14 151.389 110.996C147.25 92.4791 141.351 74.6136 135.374 57.2354C132.876 49.9706 131.629 42.7043 131.899 35.3027C132.349 22.9963 139.403 14.254 151.335 11.2998Z" stroke="#ECECEC" stroke-width="20"/>
</svg>
